<svg xmlns="http://www.w3.org/2000/svg" width="30" height="30" viewBox="0 0 30 30" fill="none"><g id="healthicons:i-schedule-school-date-time"><g id="Group"><path id="Vector" fill-rule="evenodd" clip-rule="evenodd" d="M7.5 13.125C7.16848 13.125 6.85054 13.2567 6.61612 13.4911C6.3817 13.7255 6.25 14.0435 6.25 14.375V15.625C6.25 15.9565 6.3817 16.2745 6.61612 16.5089C6.85054 16.7433 7.16848 16.875 7.5 16.875H8.75C9.08152 16.875 9.39946 16.7433 9.63388 16.5089C9.8683 16.2745 10 15.9565 10 15.625V14.375C10 14.0435 9.8683 13.7255 9.63388 13.4911C9.39946 13.2567 9.08152 13.125 8.75 13.125H7.5ZM7.5 14.375V15.625H8.75V14.375H7.5ZM11.25 14.375C11.25 14.0435 11.3817 13.7255 11.6161 13.4911C11.8505 13.2567 12.1685 13.125 12.5 13.125H13.75C14.0815 13.125 14.3995 13.2567 14.6339 13.4911C14.8683 13.7255 15 14.0435 15 14.375V15.625C15 15.9565 14.8683 16.2745 14.6339 16.5089C14.3995 16.7433 14.0815 16.875 13.75 16.875H12.5C12.1685 16.875 11.8505 16.7433 11.6161 16.5089C11.3817 16.2745 11.25 15.9565 11.25 15.625V14.375ZM12.5 14.375H13.75V15.625H12.5V14.375ZM17.5 13.125C17.1685 13.125 16.8505 13.2567 16.6161 13.4911C16.3817 13.7255 16.25 14.0435 16.25 14.375V15.625C16.25 15.9565 16.3817 16.2745 16.6161 16.5089C16.8505 16.7433 17.1685 16.875 17.5 16.875H18.75C19.0815 16.875 19.3995 16.7433 19.6339 16.5089C19.8683 16.2745 20 15.9565 20 15.625V14.375C20 14.0435 19.8683 13.7255 19.6339 13.4911C19.3995 13.2567 19.0815 13.125 18.75 13.125H17.5ZM17.5 14.375V15.625H18.75V14.375H17.5ZM6.25 19.375C6.25 19.0435 6.3817 18.7255 6.61612 18.4911C6.85054 18.2567 7.16848 18.125 7.5 18.125H8.75C9.08152 18.125 9.39946 18.2567 9.63388 18.4911C9.8683 18.7255 10 19.0435 10 19.375V20.625C10 20.9565 9.8683 21.2745 9.63388 21.5089C9.39946 21.7433 9.08152 21.875 8.75 21.875H7.5C7.16848 21.875 6.85054 21.7433 6.61612 21.5089C6.3817 21.2745 6.25 20.9565 6.25 20.625V19.375ZM8.75 19.375V20.625H7.5V19.375H8.75ZM12.5 18.125C12.1685 18.125 11.8505 18.2567 11.6161 18.4911C11.3817 18.7255 11.25 19.0435 11.25 19.375V20.625C11.25 20.9565 11.3817 21.2745 11.6161 21.5089C11.8505 21.7433 12.1685 21.875 12.5 21.875H13.75C14.0815 21.875 14.3995 21.7433 14.6339 21.5089C14.8683 21.2745 15 20.9565 15 20.625V19.375C15 19.0435 14.8683 18.7255 14.6339 18.4911C14.3995 18.2567 14.0815 18.125 13.75 18.125H12.5ZM13.75 19.375H12.5V20.625H13.75V19.375Z" fill="#DBA692"></path><path id="Vector_2" d="M22.5 20.3125C22.5 20.1467 22.4342 19.9878 22.3169 19.8706C22.1997 19.7533 22.0408 19.6875 21.875 19.6875C21.7092 19.6875 21.5503 19.7533 21.4331 19.8706C21.3158 19.9878 21.25 20.1467 21.25 20.3125V22.1338L22.0581 22.9419C22.176 23.0557 22.3339 23.1187 22.4978 23.1173C22.6616 23.1159 22.8184 23.0501 22.9343 22.9343C23.0501 22.8184 23.1159 22.6616 23.1173 22.4978C23.1187 22.3339 23.0557 22.176 22.9419 22.0581L22.5 21.6162V20.3125Z" fill="#DBA692"></path><path id="Vector_3" fill-rule="evenodd" clip-rule="evenodd" d="M7.5 4.375C7.5 4.20924 7.56585 4.05027 7.68306 3.93306C7.80027 3.81585 7.95924 3.75 8.125 3.75C8.29076 3.75 8.44973 3.81585 8.56694 3.93306C8.68415 4.05027 8.75 4.20924 8.75 4.375V7.5C8.75 7.66576 8.81585 7.82473 8.93306 7.94194C9.05027 8.05915 9.20924 8.125 9.375 8.125C9.54076 8.125 9.69973 8.05915 9.81694 7.94194C9.93415 7.82473 10 7.66576 10 7.5V5.625H16.25V4.375C16.25 4.20924 16.3158 4.05027 16.4331 3.93306C16.5503 3.81585 16.7092 3.75 16.875 3.75C17.0408 3.75 17.1997 3.81585 17.3169 3.93306C17.4342 4.05027 17.5 4.20924 17.5 4.375V7.5C17.5 7.66576 17.5658 7.82473 17.6831 7.94194C17.8003 8.05915 17.9592 8.125 18.125 8.125C18.2908 8.125 18.4497 8.05915 18.5669 7.94194C18.6842 7.82473 18.75 7.66576 18.75 7.5V5.625H20.625C21.1223 5.625 21.5992 5.82254 21.9508 6.17417C22.3025 6.52581 22.5 7.00272 22.5 7.5V17.5437C23.5947 17.702 24.5889 18.2689 25.2825 19.1305C25.9761 19.9921 26.3177 21.0844 26.2385 22.1877C26.1593 23.2909 25.6652 24.3233 24.8556 25.077C24.0461 25.8306 22.9811 26.2498 21.875 26.25C21.1696 26.2505 20.4746 26.0802 19.8493 25.7537C19.224 25.4271 18.6871 24.9541 18.2844 24.375H5.625C5.12772 24.375 4.65081 24.1775 4.29917 23.8258C3.94754 23.4742 3.75 22.9973 3.75 22.5V7.5C3.75 7.00272 3.94754 6.52581 4.29917 6.17417C4.65081 5.82254 5.12772 5.625 5.625 5.625H7.5V4.375ZM17.5 21.875C17.4999 20.8228 17.8789 19.8058 18.5676 19.0103C19.2563 18.2149 20.2086 17.6942 21.25 17.5437V11.25H5V22.5C5 22.6658 5.06585 22.8247 5.18306 22.9419C5.30027 23.0592 5.45924 23.125 5.625 23.125H17.6813C17.5607 22.7193 17.4996 22.2982 17.5 21.875ZM25 21.875C25 22.7038 24.6708 23.4987 24.0847 24.0847C23.4987 24.6708 22.7038 25 21.875 25C21.0462 25 20.2513 24.6708 19.6653 24.0847C19.0792 23.4987 18.75 22.7038 18.75 21.875C18.75 21.0462 19.0792 20.2513 19.6653 19.6653C20.2513 19.0792 21.0462 18.75 21.875 18.75C22.7038 18.75 23.4987 19.0792 24.0847 19.6653C24.6708 20.2513 25 21.0462 25 21.875Z" fill="#DBA692"></path></g></g></svg>